<svg xmlns="http://www.w3.org/2000/svg" viewBox="0 0 750 600"><defs><style>.cls-1{fill:#f3b749;}</style></defs><g id="Oiseau_jaune" data-name="Oiseau jaune"><path class="cls-1" d="M526.35,206.32c-4-5.42-12.4.8-8.42,6.26,17.41,23.88,49.43,28.58,73.49,11.77,5.54-3.87-.72-12.31-6.26-8.41-19.44,13.63-44.79,9.65-58.81-9.62Z"/><path class="cls-1" d="M650.7,247.7A228.41,228.41,0,0,0,351.85,87.62c-58.86,21.2-105,64.37-129.74,120.3-23.85,2.13-48.91,7.73-75.17,17.19C97.55,242.9,61.63,268,61.3,268.28l-4.12,2.9,3.65,3.53c.43.41,43.21,41.63,95.45,90.36l-63.59,93.5,5.56,1.56c9.14,2.69,225.64,65.09,309.47,64.63A229,229,0,0,0,508,512.45H508c67.12-24.17,117.74-76.86,138.92-144.55a223.51,223.51,0,0,0,10.19-70l35.71-34.22L650.7,247.7ZM149.8,233c55.17-19.88,105-23.16,148-9.7C395.36,253.72,451,358.42,460.87,378.43c-29.63,9.74-207.37,65-266,10.93C138.53,337.55,84.72,286,70.38,272.24A399.46,399.46,0,0,1,149.8,233ZM639,365.36c-20.36,65.2-69.16,115.93-133.84,139.17a220.81,220.81,0,0,1-97,11.82c-75.7.41-266.94-52.73-302-62.68l56.33-82.88c8.75,8.13,17.67,16.44,26.75,24.73,67.39,62.11,270.26-7.7,278.84-10.69l4.29-1.48-1.85-4.12c-.55-1.3-57.08-128.63-170.23-164-21.37-6.64-44.34-9.25-68.68-8.1,24.26-51.85,67.88-91.82,123.12-111.72a218.28,218.28,0,0,1,140.08-2.85C610.06,128.66,674.72,251,639,365.36Z"/></g></svg>